<svg width="36" height="35" viewBox="0 0 36 35" fill="none" xmlns="http://www.w3.org/2000/svg">
<path d="M1.38462 0C0.619913 0 0 0.610515 0 1.36362V11.8182C0 17.3813 4.22818 21.9718 9.69231 22.6428V24.091C9.69231 30.1159 14.6516 35 20.7692 35C26.8868 35 31.8462 30.1159 31.8462 24.091V22.5555C34.2349 21.9499 36 19.8144 36 17.2728C36 14.2604 33.5203 11.8183 30.4615 11.8183C27.4027 11.8183 24.9231 14.2604 24.9231 17.2728C24.9231 19.8144 26.6881 21.9499 29.0769 22.5555V24.091C29.0769 28.6097 25.3574 32.2728 20.7692 32.2728C16.181 32.2728 12.4615 28.6097 12.4615 24.091V22.6428C17.9257 21.9718 22.1538 17.3813 22.1538 11.8182V1.36362C22.1538 0.610515 21.5339 0 20.7692 0H16.1538C15.3891 0 14.7692 0.610515 14.7692 1.36362C14.7692 2.11673 15.3891 2.72725 16.1538 2.72725H19.3846V11.8182C19.3846 16.3369 15.6651 20 11.0769 20C6.48871 20 2.76923 16.3369 2.76923 11.8182V2.72725H6C6.7647 2.72725 7.38462 2.11673 7.38462 1.36362C7.38462 0.610515 6.7647 0 6 0H1.38462ZM30.4615 14.5456C31.9909 14.5456 33.2308 15.7666 33.2308 17.2728C33.2308 18.779 31.9909 20 30.4615 20C28.9321 20 27.6923 18.779 27.6923 17.2728C27.6923 15.7666 28.9321 14.5456 30.4615 14.5456Z" fill="#212121"/>
</svg>
