<?xml version="1.0" encoding="UTF-8" standalone="no"?>
<svg
   width="100%"
   height="100%"
   viewBox="0 0 21 24"
   version="1.1"
   xml:space="preserve"
   style="fill-rule:evenodd;clip-rule:evenodd;stroke-linecap:round;stroke-linejoin:round;stroke-miterlimit:1.5;"
   id="svg471"
   sodipodi:docname="Emergancy.svg"
   inkscape:version="1.2.1 (9c6d41e410, 2022-07-14)"
   xmlns:inkscape="http://www.inkscape.org/namespaces/inkscape"
   xmlns:sodipodi="http://sodipodi.sourceforge.net/DTD/sodipodi-0.dtd"
   xmlns="http://www.w3.org/2000/svg"
   xmlns:svg="http://www.w3.org/2000/svg"><defs
     id="defs475" /><sodipodi:namedview
     id="namedview473"
     pagecolor="#505050"
     bordercolor="#ffffff"
     borderopacity="1"
     inkscape:showpageshadow="0"
     inkscape:pageopacity="0"
     inkscape:pagecheckerboard="1"
     inkscape:deskcolor="#505050"
     showgrid="false"
     inkscape:zoom="34.541667"
     inkscape:cx="10.509047"
     inkscape:cy="12.014475"
     inkscape:window-width="1920"
     inkscape:window-height="1009"
     inkscape:window-x="-8"
     inkscape:window-y="-8"
     inkscape:window-maximized="1"
     inkscape:current-layer="svg471" /><path
     d="M0.742,9.032c0,-0 -0.12,-1.767 1.827,-1.787"
     style="fill:none;stroke:#000;stroke-width:1.48px;"
     id="path427" /><path
     d="M7.723,6.55c0,-0 -0.277,-2.301 1.566,-2.301"
     style="fill:none;stroke:#000;stroke-width:1.48px;"
     id="path429" /><path
     d="M10.731,6.55c0,-0 0.277,-2.301 -1.565,-2.301"
     style="fill:none;stroke:#000;stroke-width:1.48px;"
     id="path431" /><path
     d="M20.034,13.746c-0,-0.433 -0.352,-0.785 -0.786,-0.785c-0.434,-0 -0.786,0.352 -0.786,0.785l0,3.824c0,0.433 0.352,0.785 0.786,0.785c0.434,0 0.786,-0.352 0.786,-0.785l-0,-3.824Z"
     id="path433" /><path
     d="M12.482,13.501c-0.196,0 -0.356,0.16 -0.356,0.357l-0,0.772c-0,0.197 0.16,0.357 0.356,0.357l6.182,0c0.197,0 0.357,-0.16 0.357,-0.357l-0,-0.772c-0,-0.197 -0.16,-0.357 -0.357,-0.357l-6.182,0Z"
     id="path435" /><path
     d="M11.475,7.937c-0,-0.197 -0.16,-0.357 -0.357,-0.357l-0.772,0c-0.197,0 -0.357,0.16 -0.357,0.357l-0,4.622c-0,0.197 0.16,0.356 0.357,0.356l0.772,0c0.197,0 0.357,-0.159 0.357,-0.356l-0,-4.622Z"
     id="path437" /><path
     d="M9.994,12.509c0.024,1.376 1.138,2.479 2.505,2.479c0.015,-0 0.029,-0 0.044,-0.001l-0.026,-1.488c-0.006,-0 -0.012,0 -0.018,0c-0.56,0 -1.017,-0.452 -1.027,-1.016l-1.478,0.026Z"
     style="stroke:#000;stroke-opacity:0;stroke-width:1.57px;stroke-linejoin:miter;stroke-miterlimit:4;"
     id="path439" /><path
     d="M14.48,4.258c-0,-0.415 -0.337,-0.752 -0.753,-0.752l-0.986,0c-0.415,0 -0.753,0.337 -0.753,0.752c0,0.415 0.338,0.753 0.753,0.753l0.986,-0c0.416,-0 0.753,-0.338 0.753,-0.753Z"
     id="path441" /><path
     d="M6.502,4.258c-0,-0.415 -0.338,-0.752 -0.753,-0.752l-0.986,0c-0.416,0 -0.753,0.337 -0.753,0.752c0,0.415 0.337,0.753 0.753,0.753l0.986,-0c0.415,-0 0.753,-0.338 0.753,-0.753Z"
     id="path443" /><path
     d="M9.258,2.491c0.415,0 0.752,-0.337 0.752,-0.752l0,-0.987c0,-0.415 -0.337,-0.752 -0.752,-0.752c-0.415,-0 -0.752,0.337 -0.752,0.752l-0,0.987c-0,0.415 0.337,0.752 0.752,0.752Z"
     id="path445" /><path
     d="M11.282,2.952c0.34,0.239 0.81,0.157 1.048,-0.183l0.567,-0.808c0.238,-0.34 0.156,-0.809 -0.184,-1.048c-0.34,-0.238 -0.809,-0.156 -1.048,0.184l-0.566,0.807c-0.239,0.34 -0.157,0.81 0.183,1.048Z"
     id="path447" /><path
     d="M7.163,2.952c-0.34,0.239 -0.809,0.157 -1.048,-0.183l-0.566,-0.808c-0.239,-0.34 -0.157,-0.809 0.183,-1.048c0.34,-0.238 0.81,-0.156 1.048,0.184l0.567,0.807c0.238,0.34 0.156,0.81 -0.184,1.048Z"
     id="path449" /><path
     d="M15.04,6.845c-0.248,-0.326 -0.714,-0.39 -1.041,-0.143c-0.327,0.248 -0.391,0.715 -0.143,1.041l4.838,6.379c0.248,0.327 0.714,0.391 1.041,0.143c0.326,-0.248 0.391,-0.714 0.143,-1.041l-4.838,-6.379Z"
     id="path451" /><path
     d="M2.844,6.512c-0.411,0 -0.743,0.333 -0.743,0.743c-0,0.41 0.332,0.743 0.743,0.743l11.58,0c0.41,0 0.743,-0.333 0.743,-0.743c-0,-0.41 -0.333,-0.743 -0.743,-0.743l-11.58,0Z"
     id="path453" /><path
     d="M6.492,10.099c-0,-0.336 -0.273,-0.609 -0.61,-0.609l-0.267,0c-0.336,0 -0.609,0.273 -0.609,0.609l-0,4.28c-0,0.336 0.273,0.609 0.609,0.609l0.267,0c0.337,0 0.61,-0.273 0.61,-0.609l-0,-4.28Z"
     id="path455" /><path
     d="M7.888,12.982c0.337,0 0.61,-0.273 0.61,-0.609l-0,-0.268c-0,-0.336 -0.273,-0.609 -0.61,-0.609l-4.279,0c-0.337,0 -0.61,0.273 -0.61,0.609l0,0.268c0,0.336 0.273,0.609 0.61,0.609l4.279,0Z"
     id="path457" /><path
     d="M1.492,9.11c0,-0.197 -0.16,-0.357 -0.356,-0.357l-0.773,0c-0.197,0 -0.357,0.16 -0.357,0.357l0,8.835c0,0.197 0.16,0.357 0.357,0.357l0.773,-0c0.196,-0 0.356,-0.16 0.356,-0.357l0,-8.835Z"
     id="path459" /><path
     d="M16.868,19.335c0.217,0.104 0.451,0.158 0.689,0.158c0.935,0 1.694,-0.819 1.694,-1.829c-0,1.01 -0.759,1.829 -1.694,1.829c-0.238,0 -0.472,-0.054 -0.689,-0.158Z"
     style="fill:none;stroke:#000;stroke-width:1.57px;"
     id="path461" /><path
     d="M12.044,19.357c-0,-0.207 -0.168,-0.374 -0.374,-0.374l-3.447,-0c-0.206,-0 -0.374,0.167 -0.374,0.374l0,0.747c0,0.206 0.168,0.374 0.374,0.374l3.447,-0c0.206,-0 0.374,-0.168 0.374,-0.374l-0,-0.747Z"
     id="path463" /><circle
     cx="5.475"
     cy="19.966"
     r="2.396"
     style="fill-opacity:0.07;stroke:#000;stroke-width:1.48px;"
     id="circle465" /><circle
     cx="14.469"
     cy="19.966"
     r="2.396"
     style="fill-opacity:0;stroke:#000;stroke-width:1.48px;"
     id="circle467" /><path
     d="M0.752,17.983c0.075,0.985 0.793,1.741 1.653,1.741c0.213,0 0.424,-0.047 0.621,-0.139c-0.197,0.092 -0.408,0.139 -0.621,0.139c-0.86,0 -1.578,-0.756 -1.653,-1.741Z"
     style="fill-opacity:0.07;stroke:#000;stroke-width:1.48px;"
     id="path469" /></svg>
