<svg width="42" height="35" viewBox="0 0 42 35" fill="none" xmlns="http://www.w3.org/2000/svg">
<path d="M10.2375 0H31.7625C34.7607 0 37.2122 2.35057 37.3897 5.31687L37.4 5.66176L37.4011 12.5664C39.6485 13.2053 41.3251 15.2088 41.4871 17.6292L41.5 18.0147V33.4559C41.5 34.3087 40.8116 35 39.9625 35C39.1841 35 38.5408 34.4191 38.439 33.6654L38.425 33.4559V28.8235H3.575V33.4559C3.575 34.2376 2.99658 34.8837 2.24613 34.9859L2.0375 35C1.25912 35 0.615844 34.4191 0.514036 33.6654L0.5 33.4559V18.0147C0.5 15.4228 2.23423 13.2376 4.60091 12.5658L4.6 5.66176C4.6 2.65067 6.94049 0.188579 9.89408 0.0103326L10.2375 0ZM35.8625 15.4412H6.1375C4.81072 15.4412 3.71946 16.4539 3.58823 17.7516L3.575 18.0147V25.7353H38.425V18.0147C38.425 16.6822 37.4167 15.5863 36.1245 15.4545L35.8625 15.4412ZM31.7625 3.08824H10.2375C8.91072 3.08824 7.81946 4.10092 7.68823 5.39864L7.675 5.66176V12.3529H10.75C10.75 11.2159 11.6678 10.2941 12.8 10.2941H16.9C17.9513 10.2941 18.8178 11.0889 18.9362 12.1128L18.95 12.3529H23.05C23.05 11.2159 23.9678 10.2941 25.1 10.2941H29.2C30.2513 10.2941 31.1178 11.0889 31.2362 12.1128L31.25 12.3529H34.325V5.66176C34.325 4.32928 33.3167 3.23331 32.0245 3.10152L31.7625 3.08824Z" fill="#212121"/>
</svg>
