<svg width="34" height="39" viewBox="0 0 34 39" fill="none" xmlns="http://www.w3.org/2000/svg">
<path d="M14.6062 1.35517C16.0048 0.214943 17.9952 0.214941 19.3938 1.35517L32.5688 12.0966C33.4736 12.8342 34 13.9492 34 15.128V34.6134C34 36.7599 32.2875 38.5 30.175 38.5H25.075C22.9625 38.5 21.25 36.7599 21.25 34.6134V25.2492C21.25 24.5337 20.6792 23.9536 19.975 23.9536H14.025C13.3208 23.9536 12.75 24.5337 12.75 25.2492V34.6134C12.75 36.7599 11.0375 38.5 8.925 38.5H3.825C1.71251 38.5 0 36.7599 0 34.6134V15.128C0 13.9493 0.526446 12.8342 1.43124 12.0966L14.6062 1.35517ZM17.7979 3.37612C17.3317 2.99604 16.6683 2.99604 16.2021 3.37612L3.02708 14.1175C2.72548 14.3634 2.55 14.7351 2.55 15.128V34.6134C2.55 35.3289 3.12084 35.9089 3.825 35.9089H8.925C9.62917 35.9089 10.2 35.3289 10.2 34.6134V25.2492C10.2 23.1027 11.9125 21.3626 14.025 21.3626H19.975C22.0875 21.3626 23.8 23.1027 23.8 25.2492V34.6134C23.8 35.3289 24.3708 35.9089 25.075 35.9089H30.175C30.8792 35.9089 31.45 35.3289 31.45 34.6134V15.128C31.45 14.7351 31.2745 14.3634 30.9729 14.1175L17.7979 3.37612Z" fill="#212121"/>
</svg>
