<svg width="30" height="8" viewBox="0 0 30 8" fill="none" xmlns="http://www.w3.org/2000/svg">
<path d="M6.75195 4C6.75195 5.79493 5.29688 7.25 3.50195 7.25C1.70703 7.25 0.251953 5.79493 0.251953 4C0.251953 2.20507 1.70703 0.75 3.50195 0.75C5.29688 0.75 6.75195 2.20507 6.75195 4ZM18.252 4C18.252 5.79493 16.7969 7.25 15.002 7.25C13.207 7.25 11.752 5.79493 11.752 4C11.752 2.20507 13.207 0.75 15.002 0.75C16.7969 0.75 18.252 2.20507 18.252 4ZM26.502 7.25C28.2969 7.25 29.752 5.79493 29.752 4C29.752 2.20507 28.2969 0.75 26.502 0.75C24.707 0.75 23.252 2.20507 23.252 4C23.252 5.79493 24.707 7.25 26.502 7.25Z" fill="#212121"/>
</svg>
