<svg width="28" height="28" viewBox="0 0 28 28" fill="none" xmlns="http://www.w3.org/2000/svg">
<path d="M8 16C9.10457 16 10 15.1046 10 14C10 12.8954 9.10457 12 8 12C6.89543 12 6 12.8954 6 14C6 15.1046 6.89543 16 8 16ZM14 16C15.1046 16 16 15.1046 16 14C16 12.8954 15.1046 12 14 12C12.8954 12 12 12.8954 12 14C12 15.1046 12.8954 16 14 16ZM22 14C22 15.1046 21.1046 16 20 16C18.8954 16 18 15.1046 18 14C18 12.8954 18.8954 12 20 12C21.1046 12 22 12.8954 22 14ZM28 14C28 21.732 21.732 28 14 28C6.26801 28 0 21.732 0 14C0 6.26801 6.26801 0 14 0C21.732 0 28 6.26801 28 14ZM26 14C26 7.37258 20.6274 2 14 2C7.37258 2 2 7.37258 2 14C2 20.6274 7.37258 26 14 26C20.6274 26 26 20.6274 26 14Z" fill="#212121"/>
</svg>
