<svg width="32" height="40" viewBox="0 0 32 40" fill="none" xmlns="http://www.w3.org/2000/svg">
<path d="M4.25 0C1.90279 0 0 1.90279 0 4.25V35.75C0 38.0972 1.90279 40 4.25 40H27.75C30.0972 40 32 38.0972 32 35.75V14.4142C32 13.8175 31.7629 13.2452 31.341 12.8232L19.1768 0.65901C18.7548 0.237054 18.1825 0 17.5858 0H4.25ZM2.5 4.25C2.5 3.2835 3.2835 2.5 4.25 2.5H16V11.25C16 13.3211 17.6789 15 19.75 15H29.5V35.75C29.5 36.7165 28.7165 37.5 27.75 37.5H4.25C3.2835 37.5 2.5 36.7165 2.5 35.75V4.25ZM27.4822 12.5H19.75C19.0596 12.5 18.5 11.9404 18.5 11.25V3.51777L27.4822 12.5Z" fill="#212121"/>
</svg>
