<svg width="32" height="41" viewBox="0 0 32 41" fill="none" xmlns="http://www.w3.org/2000/svg">
<path d="M16 0.5C10.4772 0.5 6 4.97715 6 10.5C6 16.0228 10.4772 20.5 16 20.5C21.5228 20.5 26 16.0228 26 10.5C26 4.97715 21.5228 0.5 16 0.5ZM8.5 10.5C8.5 6.35786 11.8579 3 16 3C20.1421 3 23.5 6.35786 23.5 10.5C23.5 14.6421 20.1421 18 16 18C11.8579 18 8.5 14.6421 8.5 10.5ZM4.24988 24.5C1.90326 24.5 2.0504e-05 26.4013 2.74181e-06 28.7489L0 29.5C0 33.2555 1.94167 36.0669 4.92017 37.8802C7.84908 39.6633 11.7861 40.5 16 40.5C20.2139 40.5 24.1509 39.6633 27.0798 37.8802C30.0583 36.0669 32 33.2555 32 29.5L32 28.7487C32 26.4011 30.0967 24.5 27.7502 24.5H4.24988ZM2.5 28.7489C2.50001 27.783 3.28295 27 4.24988 27H27.7502C28.7171 27 29.5 27.7829 29.5 28.7488L29.5 29.5C29.5 32.2444 28.1398 34.3081 25.7798 35.7448C23.3703 37.2117 19.9323 38 16 38C12.0677 38 8.62972 37.2117 6.22018 35.7448C3.86023 34.3081 2.5 32.2444 2.5 29.5L2.5 28.7489Z" fill="#212121"/>
</svg>
