<svg width="46" height="41" viewBox="0 0 46 41" fill="none" xmlns="http://www.w3.org/2000/svg">
<path d="M29.0938 27.1552C31.4237 27.1552 33.3125 29.0732 33.3125 31.4391V34.2987L33.2977 34.5053C32.715 38.5534 29.1341 40.5 23.1252 40.5C17.138 40.5 13.4999 38.5757 12.7146 34.5741L12.6875 34.295V31.4391C12.6875 29.0732 14.5763 27.1552 16.9062 27.1552H29.0938ZM29.0938 30.0111H16.9062C16.1296 30.0111 15.5 30.6504 15.5 31.4391V34.1434C16.0246 36.4289 18.4074 37.6441 23.1252 37.6441C27.8429 37.6441 30.1187 36.4421 30.5 34.1867V31.4391C30.5 30.6504 29.8704 30.0111 29.0938 30.0111ZM30.9567 15.7295L41.2812 15.7315C43.6112 15.7315 45.5 17.6495 45.5 20.0154V22.8751L45.4852 23.0816C44.9025 27.1298 41.3216 29.0763 35.3127 29.0763L34.7224 29.0699C34.1692 27.7113 33.1533 26.5989 31.875 25.9319C32.8403 26.124 33.9839 26.2204 35.3127 26.2204C40.0304 26.2204 42.3062 25.0184 42.6875 22.7631V20.0154C42.6875 19.2268 42.0579 18.5875 41.2812 18.5875H31.4375C31.4375 17.5853 31.2681 16.6233 30.9567 15.7295ZM4.71875 15.7315L15.0433 15.7295C14.7838 16.4743 14.6229 17.2665 14.5765 18.0899L14.5625 18.5875H4.71875C3.9421 18.5875 3.3125 19.2268 3.3125 20.0154V22.7197C3.83711 25.0052 6.21992 26.2204 10.9377 26.2204C12.1041 26.2204 13.1212 26.147 13.9974 26.0022C12.7772 26.6751 11.8099 27.7595 11.2744 29.0717L10.9377 29.0763C4.95052 29.0763 1.31244 27.152 0.527118 23.1504L0.5 22.8713V20.0154C0.5 17.6495 2.3888 15.7315 4.71875 15.7315ZM23 11.9237C26.6244 11.9237 29.5625 14.9071 29.5625 18.5875C29.5625 22.2678 26.6244 25.2513 23 25.2513C19.3756 25.2513 16.4375 22.2678 16.4375 18.5875C16.4375 14.9071 19.3756 11.9237 23 11.9237ZM23 14.7796C20.9289 14.7796 19.25 16.4844 19.25 18.5875C19.25 20.6905 20.9289 22.3953 23 22.3953C25.0711 22.3953 26.75 20.6905 26.75 18.5875C26.75 16.4844 25.0711 14.7796 23 14.7796ZM35.1875 0.5C38.8119 0.5 41.75 3.48348 41.75 7.1638C41.75 10.8441 38.8119 13.8276 35.1875 13.8276C31.5631 13.8276 28.625 10.8441 28.625 7.1638C28.625 3.48348 31.5631 0.5 35.1875 0.5ZM10.8125 0.5C14.4369 0.5 17.375 3.48348 17.375 7.1638C17.375 10.8441 14.4369 13.8276 10.8125 13.8276C7.18813 13.8276 4.25 10.8441 4.25 7.1638C4.25 3.48348 7.18813 0.5 10.8125 0.5ZM35.1875 3.35591C33.1164 3.35591 31.4375 5.06076 31.4375 7.1638C31.4375 9.26684 33.1164 10.9717 35.1875 10.9717C37.2586 10.9717 38.9375 9.26684 38.9375 7.1638C38.9375 5.06076 37.2586 3.35591 35.1875 3.35591ZM10.8125 3.35591C8.74143 3.35591 7.0625 5.06076 7.0625 7.1638C7.0625 9.26684 8.74143 10.9717 10.8125 10.9717C12.8836 10.9717 14.5625 9.26684 14.5625 7.1638C14.5625 5.06076 12.8836 3.35591 10.8125 3.35591Z" fill="#212121"/>
</svg>
