<?xml version="1.0" encoding="UTF-8" standalone="no"?><!DOCTYPE svg PUBLIC "-//W3C//DTD SVG 1.1//EN" "http://www.w3.org/Graphics/SVG/1.1/DTD/svg11.dtd"><svg width="100%" height="100%" viewBox="0 0 22 22" version="1.1" xmlns="http://www.w3.org/2000/svg" xmlns:xlink="http://www.w3.org/1999/xlink" xml:space="preserve" xmlns:serif="http://www.serif.com/" style="fill-rule:evenodd;clip-rule:evenodd;stroke-linecap:round;stroke-linejoin:round;stroke-miterlimit:1.5;"><circle cx="10.685" cy="10.685" r="9.805" style="fill:#ebebeb;fill-opacity:0;stroke:#000;stroke-width:1.76px;"/><path d="M9.056,6.092c-0,-0.354 -0.288,-0.641 -0.642,-0.641l-0.321,-0c-0.354,-0 -0.642,0.287 -0.642,0.641l0,9.739c0,0.354 0.288,0.642 0.642,0.642l0.321,-0c0.354,-0 0.642,-0.288 0.642,-0.642l-0,-9.739Z"/><path d="M12.623,14.403c0.354,-0 0.641,-0.288 0.641,-0.642l0,-0.321c0,-0.354 -0.287,-0.641 -0.641,-0.641l-6.048,-0c-0.354,-0 -0.641,0.287 -0.641,0.641l-0,0.321c-0,0.354 0.287,0.642 0.641,0.642l6.048,-0Z"/><path d="M12.451,11.746c0.355,0 0.642,-0.287 0.642,-0.641l0,-0.321c0,-0.354 -0.287,-0.642 -0.642,-0.642l-5.876,0c-0.354,0 -0.641,0.288 -0.641,0.642l-0,0.321c-0,0.354 0.287,0.641 0.641,0.641l5.876,0Z"/><path d="M12.236,7.02c0.355,0 0.642,-0.287 0.642,-0.641l0,-0.321c0,-0.354 -0.287,-0.642 -0.642,-0.642l-4.143,0c-0.354,0 -0.642,0.288 -0.642,0.642l0,0.321c0,0.354 0.288,0.641 0.642,0.641l4.143,0Z"/><path d="M12.269,11.748c1.748,0 3.165,-1.417 3.165,-3.165c0,-1.748 -1.417,-3.165 -3.165,-3.165l0,1.583c0.874,-0 1.583,0.708 1.583,1.582c-0,0.874 -0.709,1.583 -1.583,1.583l0,1.582Z"/></svg>