<svg width="40" height="38" viewBox="0 0 40 38" fill="none" xmlns="http://www.w3.org/2000/svg">
<path d="M4.25 0C1.90279 0 0 1.90279 0 4.25V13.2977C0.0826309 13.2922 0.165993 13.2895 0.25 13.2895H2.5V4.25C2.5 3.2835 3.2835 2.5 4.25 2.5H35.75C36.7165 2.5 37.5 3.2835 37.5 4.25V13.2895H39.75C39.834 13.2895 39.9174 13.2922 40 13.2977V4.25C40 1.90279 38.0972 0 35.75 0H4.25ZM0 27.75V20.7813C0.0826309 20.7867 0.165993 20.7895 0.25 20.7895H2.5V27.75C2.5 28.7165 3.2835 29.5 4.25 29.5H35.75C36.7165 29.5 37.5 28.7165 37.5 27.75V20.7895H39.75C39.834 20.7895 39.9174 20.7867 40 20.7813V27.75C40 30.0972 38.0972 32 35.75 32H27V35.5H29.75C30.4404 35.5 31 36.0596 31 36.75C31 37.4404 30.4404 38 29.75 38H10.25C9.55964 38 9 37.4404 9 36.75C9 36.0596 9.55964 35.5 10.25 35.5H13V32H4.25C1.90279 32 0 30.0972 0 27.75ZM24.5 32H15.5V35.5H24.5V32ZM14.9404 5.86848C14.7768 5.35819 14.3062 5.00892 13.7704 5.00017C13.2346 4.99142 12.7529 5.32514 12.5727 5.82982L8.94282 16H1.25C0.559644 16 0 16.5596 0 17.25C0 17.9404 0.559644 18.5 1.25 18.5H9.8239C10.3523 18.5 10.8236 18.1678 11.0012 17.6702L13.6864 10.1469L18.8096 26.1315C18.9666 26.6214 19.4077 26.965 19.921 26.9975C20.4344 27.03 20.9152 26.7447 21.1327 26.2786L26.9426 13.8289L28.5914 17.736C28.7868 18.199 29.2405 18.5 29.7431 18.5H38.75C39.4404 18.5 40 17.9404 40 17.25C40 16.5596 39.4404 16 38.75 16H30.5723L28.1516 10.264C27.9595 9.80877 27.5173 9.50943 27.0233 9.50022C26.5293 9.49101 26.0762 9.77365 25.8673 10.2214L20.2165 22.3301L14.9404 5.86848Z" fill="#212121"/>
</svg>
